<?xml version="1.0" encoding="UTF-8" standalone="no"?><svg xmlns="http://www.w3.org/2000/svg" xmlns:xlink="http://www.w3.org/1999/xlink"><defs><svg viewBox="0 0 6.449 3.175" id="aircarrier" xmlns="http://www.w3.org/2000/svg"><path style="fill:currentColor;stroke-width:.352778" d="M49.537 167.551v-.705h3.528v1.411h-3.528zm3.88-.882v-1.587h.611l.979.77.979.77-1.02.815-1.02.816-.264.002-.265.002zm-3.88-.882v-.705h3.528v1.411h-3.528z" transform="translate(-49.537 -165.082)"/></svg><svg viewBox="0 0 6.39 3.175" id="battleship" xmlns="http://www.w3.org/2000/svg"><path style="fill:currentColor;stroke-width:.352778" d="M70.181 174.866h2.42l-1.774 3.175h-.646zm3.236 0h.595l-1.774 3.175h-.596zm1.42 0 1.735 1.586-1.736 1.588h-1.774Z" transform="translate(-70.181 -174.865)"/></svg><svg viewBox="0 0 6.449 3.175" id="cruiser" xmlns="http://www.w3.org/2000/svg"><path style="fill:currentColor;stroke-width:.352778" d="M155.409 104.474v-1.588h3.125l-.887 1.588-.888 1.587h-1.35zm3.053 0 .887-1.588h.551l.978.77.98.77-1.02.816-1.02.816-1.121.002-1.122.002z" transform="translate(-155.409 -102.886)"/></svg><svg viewBox="0 0 6.449 3.094" id="destroyer" xmlns="http://www.w3.org/2000/svg"><path style="fill:currentColor;stroke-width:.364812" d="M127.456 87.353v-1.547l1.037.24 1.037.24 2.187.572 2.188.573-3.225.734-3.224.735z" transform="translate(-127.456 -85.806)"/></svg><svg viewBox="0 0 6.449 3.093" id="submarine" xmlns="http://www.w3.org/2000/svg"><path style="fill:currentColor;stroke-width:.364812" d="M41.5 94.542v3.093l.706-.181v-2.732zm1.411.361v2.37l5.038-1.185z" transform="translate(-41.5 -94.542)"/></svg></defs></svg>