<?xml version="1.0" encoding="UTF-8" standalone="no"?><svg xmlns="http://www.w3.org/2000/svg" xmlns:xlink="http://www.w3.org/1999/xlink"><defs><svg viewBox="0 0 127 127" id="admiral" xmlns="http://www.w3.org/2000/svg"><path style="fill:currentColor;stroke:none;stroke-width:0;stroke-dasharray:none;paint-order:fill markers stroke" d="M0 76.2h127V127H0z"/><path style="fill:currentColor;stroke:none;stroke-width:0;stroke-dasharray:none;paint-order:fill markers stroke" transform="scale(1 -1)" d="M0-31.75h127v12.7H0z"/><path style="fill:currentColor;stroke:none;stroke-width:0;stroke-dasharray:none;paint-order:fill markers stroke" transform="scale(-1)" d="M-127-69.85H0v12.7h-127z"/><path style="fill:currentColor;stroke:none;stroke-width:0;stroke-dasharray:none;paint-order:fill markers stroke" d="M0 38.1h127v12.7H0z"/></svg><svg viewBox="0 0 127 127" id="captain" xmlns="http://www.w3.org/2000/svg"><path style="fill:currentColor;stroke:none;stroke-width:0;stroke-dasharray:none;paint-order:fill markers stroke" transform="scale(1 -1)" d="M0-69.85h127v12.7H0zM0-88.9h127v12.7H0zM0-127h127v12.7H0z"/><path style="fill:currentColor;stroke:none;stroke-width:0;stroke-dasharray:none;paint-order:fill markers stroke" d="M0 95.25h127v12.7H0z"/></svg><svg viewBox="0 0 127 127" id="commander" xmlns="http://www.w3.org/2000/svg"><path style="fill:currentColor;stroke:none;stroke-width:0;stroke-dasharray:none;paint-order:fill markers stroke" transform="scale(1 -1)" d="M0-88.9h127v12.7H0zM0-127h127v12.7H0z"/><path style="fill:currentColor;stroke:none;stroke-width:0;stroke-dasharray:none;paint-order:fill markers stroke" d="M0 95.25h127v12.7H0z"/></svg><svg viewBox="0 0 127 127" id="ensign" xmlns="http://www.w3.org/2000/svg"><path style="fill:currentColor;stroke:none;stroke-width:0;stroke-dasharray:none;paint-order:fill markers stroke" transform="scale(1 -1)" d="M0-127h127v12.7H0z"/></svg><svg viewBox="0 0 127 127" id="fleet-admiral" xmlns="http://www.w3.org/2000/svg"><path style="fill:currentColor;stroke:none;stroke-width:0;stroke-dasharray:none;paint-order:fill markers stroke" d="M0 76.2h127V127H0z"/><path style="fill:currentColor;stroke:none;stroke-width:0;stroke-dasharray:none;paint-order:fill markers stroke" transform="scale(1 -1)" d="M0-12.7h127V0H0zM0-31.75h127v12.7H0z"/><path style="fill:currentColor;stroke:none;stroke-width:0;stroke-dasharray:none;paint-order:fill markers stroke" transform="scale(-1)" d="M-127-69.85H0v12.7h-127z"/><path style="fill:currentColor;stroke:none;stroke-width:0;stroke-dasharray:none;paint-order:fill markers stroke" d="M0 38.1h127v12.7H0z"/></svg><svg viewBox="0 0 127 127" id="lieutenant" xmlns="http://www.w3.org/2000/svg"><path style="fill:currentColor;stroke:none;stroke-width:0;stroke-dasharray:none;paint-order:fill markers stroke" transform="scale(1 -1)" d="M0-127h127v12.7H0z"/><path style="fill:currentColor;stroke:none;stroke-width:0;stroke-dasharray:none;paint-order:fill markers stroke" d="M0 95.25h127v12.7H0z"/></svg><svg viewBox="0 0 127 127" id="lieutenant-commander" xmlns="http://www.w3.org/2000/svg"><path style="fill:currentColor;stroke:none;stroke-width:0;stroke-dasharray:none;paint-order:fill markers stroke" transform="scale(1 -1)" d="M0-127h127v12.7H0zM0-95.25h127v12.7H0z"/><path style="fill:currentColor;stroke:none;stroke-width:0;stroke-dasharray:none;paint-order:fill markers stroke" d="M0 101.6h127v6.35H0z"/></svg><svg viewBox="0 0 127 127" id="lieutenant-junior-grade" xmlns="http://www.w3.org/2000/svg"><path style="fill:currentColor;stroke:none;stroke-width:0;stroke-dasharray:none;paint-order:fill markers stroke" transform="scale(1 -1)" d="M0-127h127v12.7H0z"/><path style="fill:currentColor;stroke:none;stroke-width:0;stroke-dasharray:none;paint-order:fill markers stroke" d="M0 101.6h127v6.35H0z"/></svg><svg viewBox="0 0 127 127" id="rear-admiral" xmlns="http://www.w3.org/2000/svg"><path style="fill:currentColor;stroke:none;stroke-width:0;stroke-dasharray:none;paint-order:fill markers stroke" d="M0 76.2h127V127H0z"/><path style="fill:currentColor;stroke:none;stroke-width:0;stroke-dasharray:none;paint-order:fill markers stroke" transform="scale(-1)" d="M-127-69.85H0v12.7h-127z"/></svg><svg viewBox="0 0 127 127" id="rear-admiral-lower-half" xmlns="http://www.w3.org/2000/svg"><path style="fill:currentColor;stroke:none;stroke-width:0;stroke-dasharray:none;paint-order:fill markers stroke" d="M0 76.2h127V127H0z"/></svg><svg viewBox="0 0 127 127" id="vice-admiral" xmlns="http://www.w3.org/2000/svg"><path style="fill:currentColor;stroke:none;stroke-width:0;stroke-dasharray:none;paint-order:fill markers stroke" d="M0 76.2h127V127H0z"/><path style="fill:currentColor;stroke:none;stroke-width:0;stroke-dasharray:none;paint-order:fill markers stroke" transform="scale(-1)" d="M-127-69.85H0v12.7h-127z"/><path style="fill:currentColor;stroke:none;stroke-width:0;stroke-dasharray:none;paint-order:fill markers stroke" d="M0 38.1h127v12.7H0z"/></svg></defs></svg>